<?xml version="1.0" encoding="UTF-8"?>
<svg xmlns="http://www.w3.org/2000/svg" xmlns:xlink="http://www.w3.org/1999/xlink" width="200pt" height="200pt" viewBox="0 0 200 200" version="1.1">
<defs>
<filter id="alpha" filterUnits="objectBoundingBox" x="0%" y="0%" width="100%" height="100%">
  <feColorMatrix type="matrix" in="SourceGraphic" values="0 0 0 0 1 0 0 0 0 1 0 0 0 0 1 0 0 0 1 0"/>
</filter>
<mask id="mask0">
  <g filter="url(#alpha)">
<rect x="0" y="0" width="200" height="200" style="fill:rgb(0%,0%,0%);fill-opacity:0.1;stroke:none;"/>
  </g>
</mask>
<clipPath id="clip1">
  <rect x="0" y="0" width="200" height="200"/>
</clipPath>
<g id="surface5" clip-path="url(#clip1)">
<rect x="0" y="0" width="200" height="200" style="fill:rgb(100%,100%,100%);fill-opacity:1;stroke:none;"/>
<path style=" stroke:none;fill-rule:nonzero;fill:rgb(0%,0%,0%);fill-opacity:1;" d="M 12 12 L 19 12 L 19 19 L 12 19 Z M 12 12 "/>
<path style=" stroke:none;fill-rule:nonzero;fill:rgb(0%,0%,0%);fill-opacity:1;" d="M 19 12 L 26 12 L 26 19 L 19 19 Z M 19 12 "/>
<path style=" stroke:none;fill-rule:nonzero;fill:rgb(0%,0%,0%);fill-opacity:1;" d="M 26 12 L 33 12 L 33 19 L 26 19 Z M 26 12 "/>
<path style=" stroke:none;fill-rule:nonzero;fill:rgb(0%,0%,0%);fill-opacity:1;" d="M 33 12 L 40 12 L 40 19 L 33 19 Z M 33 12 "/>
<path style=" stroke:none;fill-rule:nonzero;fill:rgb(0%,0%,0%);fill-opacity:1;" d="M 40 12 L 47 12 L 47 19 L 40 19 Z M 40 12 "/>
<path style=" stroke:none;fill-rule:nonzero;fill:rgb(0%,0%,0%);fill-opacity:1;" d="M 47 12 L 54 12 L 54 19 L 47 19 Z M 47 12 "/>
<path style=" stroke:none;fill-rule:nonzero;fill:rgb(0%,0%,0%);fill-opacity:1;" d="M 54 12 L 61 12 L 61 19 L 54 19 Z M 54 12 "/>
<path style=" stroke:none;fill-rule:nonzero;fill:rgb(0%,0%,0%);fill-opacity:1;" d="M 68 12 L 75 12 L 75 19 L 68 19 Z M 68 12 "/>
<path style=" stroke:none;fill-rule:nonzero;fill:rgb(0%,0%,0%);fill-opacity:1;" d="M 110 12 L 117 12 L 117 19 L 110 19 Z M 110 12 "/>
<path style=" stroke:none;fill-rule:nonzero;fill:rgb(0%,0%,0%);fill-opacity:1;" d="M 117 12 L 124 12 L 124 19 L 117 19 Z M 117 12 "/>
<path style=" stroke:none;fill-rule:nonzero;fill:rgb(0%,0%,0%);fill-opacity:1;" d="M 124 12 L 131 12 L 131 19 L 124 19 Z M 124 12 "/>
<path style=" stroke:none;fill-rule:nonzero;fill:rgb(0%,0%,0%);fill-opacity:1;" d="M 138 12 L 145 12 L 145 19 L 138 19 Z M 138 12 "/>
<path style=" stroke:none;fill-rule:nonzero;fill:rgb(0%,0%,0%);fill-opacity:1;" d="M 145 12 L 152 12 L 152 19 L 145 19 Z M 145 12 "/>
<path style=" stroke:none;fill-rule:nonzero;fill:rgb(0%,0%,0%);fill-opacity:1;" d="M 152 12 L 159 12 L 159 19 L 152 19 Z M 152 12 "/>
<path style=" stroke:none;fill-rule:nonzero;fill:rgb(0%,0%,0%);fill-opacity:1;" d="M 159 12 L 166 12 L 166 19 L 159 19 Z M 159 12 "/>
<path style=" stroke:none;fill-rule:nonzero;fill:rgb(0%,0%,0%);fill-opacity:1;" d="M 166 12 L 173 12 L 173 19 L 166 19 Z M 166 12 "/>
<path style=" stroke:none;fill-rule:nonzero;fill:rgb(0%,0%,0%);fill-opacity:1;" d="M 173 12 L 180 12 L 180 19 L 173 19 Z M 173 12 "/>
<path style=" stroke:none;fill-rule:nonzero;fill:rgb(0%,0%,0%);fill-opacity:1;" d="M 180 12 L 187 12 L 187 19 L 180 19 Z M 180 12 "/>
<path style=" stroke:none;fill-rule:nonzero;fill:rgb(0%,0%,0%);fill-opacity:1;" d="M 12 19 L 19 19 L 19 26 L 12 26 Z M 12 19 "/>
<path style=" stroke:none;fill-rule:nonzero;fill:rgb(0%,0%,0%);fill-opacity:1;" d="M 54 19 L 61 19 L 61 26 L 54 26 Z M 54 19 "/>
<path style=" stroke:none;fill-rule:nonzero;fill:rgb(0%,0%,0%);fill-opacity:1;" d="M 68 19 L 75 19 L 75 26 L 68 26 Z M 68 19 "/>
<path style=" stroke:none;fill-rule:nonzero;fill:rgb(0%,0%,0%);fill-opacity:1;" d="M 89 19 L 96 19 L 96 26 L 89 26 Z M 89 19 "/>
<path style=" stroke:none;fill-rule:nonzero;fill:rgb(0%,0%,0%);fill-opacity:1;" d="M 96 19 L 103 19 L 103 26 L 96 26 Z M 96 19 "/>
<path style=" stroke:none;fill-rule:nonzero;fill:rgb(0%,0%,0%);fill-opacity:1;" d="M 103 19 L 110 19 L 110 26 L 103 26 Z M 103 19 "/>
<path style=" stroke:none;fill-rule:nonzero;fill:rgb(0%,0%,0%);fill-opacity:1;" d="M 124 19 L 131 19 L 131 26 L 124 26 Z M 124 19 "/>
<path style=" stroke:none;fill-rule:nonzero;fill:rgb(0%,0%,0%);fill-opacity:1;" d="M 138 19 L 145 19 L 145 26 L 138 26 Z M 138 19 "/>
<path style=" stroke:none;fill-rule:nonzero;fill:rgb(0%,0%,0%);fill-opacity:1;" d="M 180 19 L 187 19 L 187 26 L 180 26 Z M 180 19 "/>
<path style=" stroke:none;fill-rule:nonzero;fill:rgb(0%,0%,0%);fill-opacity:1;" d="M 12 26 L 19 26 L 19 33 L 12 33 Z M 12 26 "/>
<path style=" stroke:none;fill-rule:nonzero;fill:rgb(0%,0%,0%);fill-opacity:1;" d="M 26 26 L 33 26 L 33 33 L 26 33 Z M 26 26 "/>
<path style=" stroke:none;fill-rule:nonzero;fill:rgb(0%,0%,0%);fill-opacity:1;" d="M 33 26 L 40 26 L 40 33 L 33 33 Z M 33 26 "/>
<path style=" stroke:none;fill-rule:nonzero;fill:rgb(0%,0%,0%);fill-opacity:1;" d="M 40 26 L 47 26 L 47 33 L 40 33 Z M 40 26 "/>
<path style=" stroke:none;fill-rule:nonzero;fill:rgb(0%,0%,0%);fill-opacity:1;" d="M 54 26 L 61 26 L 61 33 L 54 33 Z M 54 26 "/>
<path style=" stroke:none;fill-rule:nonzero;fill:rgb(0%,0%,0%);fill-opacity:1;" d="M 68 26 L 75 26 L 75 33 L 68 33 Z M 68 26 "/>
<path style=" stroke:none;fill-rule:nonzero;fill:rgb(0%,0%,0%);fill-opacity:1;" d="M 75 26 L 82 26 L 82 33 L 75 33 Z M 75 26 "/>
<path style=" stroke:none;fill-rule:nonzero;fill:rgb(0%,0%,0%);fill-opacity:1;" d="M 96 26 L 103 26 L 103 33 L 96 33 Z M 96 26 "/>
<path style=" stroke:none;fill-rule:nonzero;fill:rgb(0%,0%,0%);fill-opacity:1;" d="M 117 26 L 124 26 L 124 33 L 117 33 Z M 117 26 "/>
<path style=" stroke:none;fill-rule:nonzero;fill:rgb(0%,0%,0%);fill-opacity:1;" d="M 124 26 L 131 26 L 131 33 L 124 33 Z M 124 26 "/>
<path style=" stroke:none;fill-rule:nonzero;fill:rgb(0%,0%,0%);fill-opacity:1;" d="M 138 26 L 145 26 L 145 33 L 138 33 Z M 138 26 "/>
<path style=" stroke:none;fill-rule:nonzero;fill:rgb(0%,0%,0%);fill-opacity:1;" d="M 152 26 L 159 26 L 159 33 L 152 33 Z M 152 26 "/>
<path style=" stroke:none;fill-rule:nonzero;fill:rgb(0%,0%,0%);fill-opacity:1;" d="M 159 26 L 166 26 L 166 33 L 159 33 Z M 159 26 "/>
<path style=" stroke:none;fill-rule:nonzero;fill:rgb(0%,0%,0%);fill-opacity:1;" d="M 166 26 L 173 26 L 173 33 L 166 33 Z M 166 26 "/>
<path style=" stroke:none;fill-rule:nonzero;fill:rgb(0%,0%,0%);fill-opacity:1;" d="M 180 26 L 187 26 L 187 33 L 180 33 Z M 180 26 "/>
<path style=" stroke:none;fill-rule:nonzero;fill:rgb(0%,0%,0%);fill-opacity:1;" d="M 12 33 L 19 33 L 19 40 L 12 40 Z M 12 33 "/>
<path style=" stroke:none;fill-rule:nonzero;fill:rgb(0%,0%,0%);fill-opacity:1;" d="M 26 33 L 33 33 L 33 40 L 26 40 Z M 26 33 "/>
<path style=" stroke:none;fill-rule:nonzero;fill:rgb(0%,0%,0%);fill-opacity:1;" d="M 33 33 L 40 33 L 40 40 L 33 40 Z M 33 33 "/>
<path style=" stroke:none;fill-rule:nonzero;fill:rgb(0%,0%,0%);fill-opacity:1;" d="M 40 33 L 47 33 L 47 40 L 40 40 Z M 40 33 "/>
<path style=" stroke:none;fill-rule:nonzero;fill:rgb(0%,0%,0%);fill-opacity:1;" d="M 54 33 L 61 33 L 61 40 L 54 40 Z M 54 33 "/>
<path style=" stroke:none;fill-rule:nonzero;fill:rgb(0%,0%,0%);fill-opacity:1;" d="M 68 33 L 75 33 L 75 40 L 68 40 Z M 68 33 "/>
<path style=" stroke:none;fill-rule:nonzero;fill:rgb(0%,0%,0%);fill-opacity:1;" d="M 75 33 L 82 33 L 82 40 L 75 40 Z M 75 33 "/>
<path style=" stroke:none;fill-rule:nonzero;fill:rgb(0%,0%,0%);fill-opacity:1;" d="M 82 33 L 89 33 L 89 40 L 82 40 Z M 82 33 "/>
<path style=" stroke:none;fill-rule:nonzero;fill:rgb(0%,0%,0%);fill-opacity:1;" d="M 96 33 L 103 33 L 103 40 L 96 40 Z M 96 33 "/>
<path style=" stroke:none;fill-rule:nonzero;fill:rgb(0%,0%,0%);fill-opacity:1;" d="M 117 33 L 124 33 L 124 40 L 117 40 Z M 117 33 "/>
<path style=" stroke:none;fill-rule:nonzero;fill:rgb(0%,0%,0%);fill-opacity:1;" d="M 124 33 L 131 33 L 131 40 L 124 40 Z M 124 33 "/>
<path style=" stroke:none;fill-rule:nonzero;fill:rgb(0%,0%,0%);fill-opacity:1;" d="M 138 33 L 145 33 L 145 40 L 138 40 Z M 138 33 "/>
<path style=" stroke:none;fill-rule:nonzero;fill:rgb(0%,0%,0%);fill-opacity:1;" d="M 152 33 L 159 33 L 159 40 L 152 40 Z M 152 33 "/>
<path style=" stroke:none;fill-rule:nonzero;fill:rgb(0%,0%,0%);fill-opacity:1;" d="M 159 33 L 166 33 L 166 40 L 159 40 Z M 159 33 "/>
<path style=" stroke:none;fill-rule:nonzero;fill:rgb(0%,0%,0%);fill-opacity:1;" d="M 166 33 L 173 33 L 173 40 L 166 40 Z M 166 33 "/>
<path style=" stroke:none;fill-rule:nonzero;fill:rgb(0%,0%,0%);fill-opacity:1;" d="M 180 33 L 187 33 L 187 40 L 180 40 Z M 180 33 "/>
<path style=" stroke:none;fill-rule:nonzero;fill:rgb(0%,0%,0%);fill-opacity:1;" d="M 12 40 L 19 40 L 19 47 L 12 47 Z M 12 40 "/>
<path style=" stroke:none;fill-rule:nonzero;fill:rgb(0%,0%,0%);fill-opacity:1;" d="M 26 40 L 33 40 L 33 47 L 26 47 Z M 26 40 "/>
<path style=" stroke:none;fill-rule:nonzero;fill:rgb(0%,0%,0%);fill-opacity:1;" d="M 33 40 L 40 40 L 40 47 L 33 47 Z M 33 40 "/>
<path style=" stroke:none;fill-rule:nonzero;fill:rgb(0%,0%,0%);fill-opacity:1;" d="M 40 40 L 47 40 L 47 47 L 40 47 Z M 40 40 "/>
<path style=" stroke:none;fill-rule:nonzero;fill:rgb(0%,0%,0%);fill-opacity:1;" d="M 54 40 L 61 40 L 61 47 L 54 47 Z M 54 40 "/>
<path style=" stroke:none;fill-rule:nonzero;fill:rgb(0%,0%,0%);fill-opacity:1;" d="M 75 40 L 82 40 L 82 47 L 75 47 Z M 75 40 "/>
<path style=" stroke:none;fill-rule:nonzero;fill:rgb(0%,0%,0%);fill-opacity:1;" d="M 82 40 L 89 40 L 89 47 L 82 47 Z M 82 40 "/>
<path style=" stroke:none;fill-rule:nonzero;fill:rgb(0%,0%,0%);fill-opacity:1;" d="M 96 40 L 103 40 L 103 47 L 96 47 Z M 96 40 "/>
<path style=" stroke:none;fill-rule:nonzero;fill:rgb(0%,0%,0%);fill-opacity:1;" d="M 110 40 L 117 40 L 117 47 L 110 47 Z M 110 40 "/>
<path style=" stroke:none;fill-rule:nonzero;fill:rgb(0%,0%,0%);fill-opacity:1;" d="M 117 40 L 124 40 L 124 47 L 117 47 Z M 117 40 "/>
<path style=" stroke:none;fill-rule:nonzero;fill:rgb(0%,0%,0%);fill-opacity:1;" d="M 124 40 L 131 40 L 131 47 L 124 47 Z M 124 40 "/>
<path style=" stroke:none;fill-rule:nonzero;fill:rgb(0%,0%,0%);fill-opacity:1;" d="M 138 40 L 145 40 L 145 47 L 138 47 Z M 138 40 "/>
<path style=" stroke:none;fill-rule:nonzero;fill:rgb(0%,0%,0%);fill-opacity:1;" d="M 152 40 L 159 40 L 159 47 L 152 47 Z M 152 40 "/>
<path style=" stroke:none;fill-rule:nonzero;fill:rgb(0%,0%,0%);fill-opacity:1;" d="M 159 40 L 166 40 L 166 47 L 159 47 Z M 159 40 "/>
<path style=" stroke:none;fill-rule:nonzero;fill:rgb(0%,0%,0%);fill-opacity:1;" d="M 166 40 L 173 40 L 173 47 L 166 47 Z M 166 40 "/>
<path style=" stroke:none;fill-rule:nonzero;fill:rgb(0%,0%,0%);fill-opacity:1;" d="M 180 40 L 187 40 L 187 47 L 180 47 Z M 180 40 "/>
<path style=" stroke:none;fill-rule:nonzero;fill:rgb(0%,0%,0%);fill-opacity:1;" d="M 12 47 L 19 47 L 19 54 L 12 54 Z M 12 47 "/>
<path style=" stroke:none;fill-rule:nonzero;fill:rgb(0%,0%,0%);fill-opacity:1;" d="M 54 47 L 61 47 L 61 54 L 54 54 Z M 54 47 "/>
<path style=" stroke:none;fill-rule:nonzero;fill:rgb(0%,0%,0%);fill-opacity:1;" d="M 68 47 L 75 47 L 75 54 L 68 54 Z M 68 47 "/>
<path style=" stroke:none;fill-rule:nonzero;fill:rgb(0%,0%,0%);fill-opacity:1;" d="M 75 47 L 82 47 L 82 54 L 75 54 Z M 75 47 "/>
<path style=" stroke:none;fill-rule:nonzero;fill:rgb(0%,0%,0%);fill-opacity:1;" d="M 82 47 L 89 47 L 89 54 L 82 54 Z M 82 47 "/>
<path style=" stroke:none;fill-rule:nonzero;fill:rgb(0%,0%,0%);fill-opacity:1;" d="M 124 47 L 131 47 L 131 54 L 124 54 Z M 124 47 "/>
<path style=" stroke:none;fill-rule:nonzero;fill:rgb(0%,0%,0%);fill-opacity:1;" d="M 138 47 L 145 47 L 145 54 L 138 54 Z M 138 47 "/>
<path style=" stroke:none;fill-rule:nonzero;fill:rgb(0%,0%,0%);fill-opacity:1;" d="M 180 47 L 187 47 L 187 54 L 180 54 Z M 180 47 "/>
<path style=" stroke:none;fill-rule:nonzero;fill:rgb(0%,0%,0%);fill-opacity:1;" d="M 12 54 L 19 54 L 19 61 L 12 61 Z M 12 54 "/>
<path style=" stroke:none;fill-rule:nonzero;fill:rgb(0%,0%,0%);fill-opacity:1;" d="M 19 54 L 26 54 L 26 61 L 19 61 Z M 19 54 "/>
<path style=" stroke:none;fill-rule:nonzero;fill:rgb(0%,0%,0%);fill-opacity:1;" d="M 26 54 L 33 54 L 33 61 L 26 61 Z M 26 54 "/>
<path style=" stroke:none;fill-rule:nonzero;fill:rgb(0%,0%,0%);fill-opacity:1;" d="M 33 54 L 40 54 L 40 61 L 33 61 Z M 33 54 "/>
<path style=" stroke:none;fill-rule:nonzero;fill:rgb(0%,0%,0%);fill-opacity:1;" d="M 40 54 L 47 54 L 47 61 L 40 61 Z M 40 54 "/>
<path style=" stroke:none;fill-rule:nonzero;fill:rgb(0%,0%,0%);fill-opacity:1;" d="M 47 54 L 54 54 L 54 61 L 47 61 Z M 47 54 "/>
<path style=" stroke:none;fill-rule:nonzero;fill:rgb(0%,0%,0%);fill-opacity:1;" d="M 54 54 L 61 54 L 61 61 L 54 61 Z M 54 54 "/>
<path style=" stroke:none;fill-rule:nonzero;fill:rgb(0%,0%,0%);fill-opacity:1;" d="M 68 54 L 75 54 L 75 61 L 68 61 Z M 68 54 "/>
<path style=" stroke:none;fill-rule:nonzero;fill:rgb(0%,0%,0%);fill-opacity:1;" d="M 82 54 L 89 54 L 89 61 L 82 61 Z M 82 54 "/>
<path style=" stroke:none;fill-rule:nonzero;fill:rgb(0%,0%,0%);fill-opacity:1;" d="M 96 54 L 103 54 L 103 61 L 96 61 Z M 96 54 "/>
<path style=" stroke:none;fill-rule:nonzero;fill:rgb(0%,0%,0%);fill-opacity:1;" d="M 110 54 L 117 54 L 117 61 L 110 61 Z M 110 54 "/>
<path style=" stroke:none;fill-rule:nonzero;fill:rgb(0%,0%,0%);fill-opacity:1;" d="M 124 54 L 131 54 L 131 61 L 124 61 Z M 124 54 "/>
<path style=" stroke:none;fill-rule:nonzero;fill:rgb(0%,0%,0%);fill-opacity:1;" d="M 138 54 L 145 54 L 145 61 L 138 61 Z M 138 54 "/>
<path style=" stroke:none;fill-rule:nonzero;fill:rgb(0%,0%,0%);fill-opacity:1;" d="M 145 54 L 152 54 L 152 61 L 145 61 Z M 145 54 "/>
<path style=" stroke:none;fill-rule:nonzero;fill:rgb(0%,0%,0%);fill-opacity:1;" d="M 152 54 L 159 54 L 159 61 L 152 61 Z M 152 54 "/>
<path style=" stroke:none;fill-rule:nonzero;fill:rgb(0%,0%,0%);fill-opacity:1;" d="M 159 54 L 166 54 L 166 61 L 159 61 Z M 159 54 "/>
<path style=" stroke:none;fill-rule:nonzero;fill:rgb(0%,0%,0%);fill-opacity:1;" d="M 166 54 L 173 54 L 173 61 L 166 61 Z M 166 54 "/>
<path style=" stroke:none;fill-rule:nonzero;fill:rgb(0%,0%,0%);fill-opacity:1;" d="M 173 54 L 180 54 L 180 61 L 173 61 Z M 173 54 "/>
<path style=" stroke:none;fill-rule:nonzero;fill:rgb(0%,0%,0%);fill-opacity:1;" d="M 180 54 L 187 54 L 187 61 L 180 61 Z M 180 54 "/>
<path style=" stroke:none;fill-rule:nonzero;fill:rgb(0%,0%,0%);fill-opacity:1;" d="M 82 61 L 89 61 L 89 68 L 82 68 Z M 82 61 "/>
<path style=" stroke:none;fill-rule:nonzero;fill:rgb(0%,0%,0%);fill-opacity:1;" d="M 89 61 L 96 61 L 96 68 L 89 68 Z M 89 61 "/>
<path style=" stroke:none;fill-rule:nonzero;fill:rgb(0%,0%,0%);fill-opacity:1;" d="M 103 61 L 110 61 L 110 68 L 103 68 Z M 103 61 "/>
<path style=" stroke:none;fill-rule:nonzero;fill:rgb(0%,0%,0%);fill-opacity:1;" d="M 117 61 L 124 61 L 124 68 L 117 68 Z M 117 61 "/>
<path style=" stroke:none;fill-rule:nonzero;fill:rgb(0%,0%,0%);fill-opacity:1;" d="M 124 61 L 131 61 L 131 68 L 124 68 Z M 124 61 "/>
<path style=" stroke:none;fill-rule:nonzero;fill:rgb(0%,0%,0%);fill-opacity:1;" d="M 12 68 L 19 68 L 19 75 L 12 75 Z M 12 68 "/>
<path style=" stroke:none;fill-rule:nonzero;fill:rgb(0%,0%,0%);fill-opacity:1;" d="M 19 68 L 26 68 L 26 75 L 19 75 Z M 19 68 "/>
<path style=" stroke:none;fill-rule:nonzero;fill:rgb(0%,0%,0%);fill-opacity:1;" d="M 40 68 L 47 68 L 47 75 L 40 75 Z M 40 68 "/>
<path style=" stroke:none;fill-rule:nonzero;fill:rgb(0%,0%,0%);fill-opacity:1;" d="M 47 68 L 54 68 L 54 75 L 47 75 Z M 47 68 "/>
<path style=" stroke:none;fill-rule:nonzero;fill:rgb(0%,0%,0%);fill-opacity:1;" d="M 54 68 L 61 68 L 61 75 L 54 75 Z M 54 68 "/>
<path style=" stroke:none;fill-rule:nonzero;fill:rgb(0%,0%,0%);fill-opacity:1;" d="M 82 68 L 89 68 L 89 75 L 82 75 Z M 82 68 "/>
<path style=" stroke:none;fill-rule:nonzero;fill:rgb(0%,0%,0%);fill-opacity:1;" d="M 96 68 L 103 68 L 103 75 L 96 75 Z M 96 68 "/>
<path style=" stroke:none;fill-rule:nonzero;fill:rgb(0%,0%,0%);fill-opacity:1;" d="M 103 68 L 110 68 L 110 75 L 103 75 Z M 103 68 "/>
<path style=" stroke:none;fill-rule:nonzero;fill:rgb(0%,0%,0%);fill-opacity:1;" d="M 117 68 L 124 68 L 124 75 L 117 75 Z M 117 68 "/>
<path style=" stroke:none;fill-rule:nonzero;fill:rgb(0%,0%,0%);fill-opacity:1;" d="M 145 68 L 152 68 L 152 75 L 145 75 Z M 145 68 "/>
<path style=" stroke:none;fill-rule:nonzero;fill:rgb(0%,0%,0%);fill-opacity:1;" d="M 159 68 L 166 68 L 166 75 L 159 75 Z M 159 68 "/>
<path style=" stroke:none;fill-rule:nonzero;fill:rgb(0%,0%,0%);fill-opacity:1;" d="M 166 68 L 173 68 L 173 75 L 166 75 Z M 166 68 "/>
<path style=" stroke:none;fill-rule:nonzero;fill:rgb(0%,0%,0%);fill-opacity:1;" d="M 173 68 L 180 68 L 180 75 L 173 75 Z M 173 68 "/>
<path style=" stroke:none;fill-rule:nonzero;fill:rgb(0%,0%,0%);fill-opacity:1;" d="M 180 68 L 187 68 L 187 75 L 180 75 Z M 180 68 "/>
<path style=" stroke:none;fill-rule:nonzero;fill:rgb(0%,0%,0%);fill-opacity:1;" d="M 26 75 L 33 75 L 33 82 L 26 82 Z M 26 75 "/>
<path style=" stroke:none;fill-rule:nonzero;fill:rgb(0%,0%,0%);fill-opacity:1;" d="M 33 75 L 40 75 L 40 82 L 33 82 Z M 33 75 "/>
<path style=" stroke:none;fill-rule:nonzero;fill:rgb(0%,0%,0%);fill-opacity:1;" d="M 61 75 L 68 75 L 68 82 L 61 82 Z M 61 75 "/>
<path style=" stroke:none;fill-rule:nonzero;fill:rgb(0%,0%,0%);fill-opacity:1;" d="M 103 75 L 110 75 L 110 82 L 103 82 Z M 103 75 "/>
<path style=" stroke:none;fill-rule:nonzero;fill:rgb(0%,0%,0%);fill-opacity:1;" d="M 110 75 L 117 75 L 117 82 L 110 82 Z M 110 75 "/>
<path style=" stroke:none;fill-rule:nonzero;fill:rgb(0%,0%,0%);fill-opacity:1;" d="M 117 75 L 124 75 L 124 82 L 117 82 Z M 117 75 "/>
<path style=" stroke:none;fill-rule:nonzero;fill:rgb(0%,0%,0%);fill-opacity:1;" d="M 124 75 L 131 75 L 131 82 L 124 82 Z M 124 75 "/>
<path style=" stroke:none;fill-rule:nonzero;fill:rgb(0%,0%,0%);fill-opacity:1;" d="M 131 75 L 138 75 L 138 82 L 131 82 Z M 131 75 "/>
<path style=" stroke:none;fill-rule:nonzero;fill:rgb(0%,0%,0%);fill-opacity:1;" d="M 152 75 L 159 75 L 159 82 L 152 82 Z M 152 75 "/>
<path style=" stroke:none;fill-rule:nonzero;fill:rgb(0%,0%,0%);fill-opacity:1;" d="M 173 75 L 180 75 L 180 82 L 173 82 Z M 173 75 "/>
<path style=" stroke:none;fill-rule:nonzero;fill:rgb(0%,0%,0%);fill-opacity:1;" d="M 12 82 L 19 82 L 19 89 L 12 89 Z M 12 82 "/>
<path style=" stroke:none;fill-rule:nonzero;fill:rgb(0%,0%,0%);fill-opacity:1;" d="M 26 82 L 33 82 L 33 89 L 26 89 Z M 26 82 "/>
<path style=" stroke:none;fill-rule:nonzero;fill:rgb(0%,0%,0%);fill-opacity:1;" d="M 40 82 L 47 82 L 47 89 L 40 89 Z M 40 82 "/>
<path style=" stroke:none;fill-rule:nonzero;fill:rgb(0%,0%,0%);fill-opacity:1;" d="M 47 82 L 54 82 L 54 89 L 47 89 Z M 47 82 "/>
<path style=" stroke:none;fill-rule:nonzero;fill:rgb(0%,0%,0%);fill-opacity:1;" d="M 54 82 L 61 82 L 61 89 L 54 89 Z M 54 82 "/>
<path style=" stroke:none;fill-rule:nonzero;fill:rgb(0%,0%,0%);fill-opacity:1;" d="M 68 82 L 75 82 L 75 89 L 68 89 Z M 68 82 "/>
<path style=" stroke:none;fill-rule:nonzero;fill:rgb(0%,0%,0%);fill-opacity:1;" d="M 75 82 L 82 82 L 82 89 L 75 89 Z M 75 82 "/>
<path style=" stroke:none;fill-rule:nonzero;fill:rgb(0%,0%,0%);fill-opacity:1;" d="M 82 82 L 89 82 L 89 89 L 82 89 Z M 82 82 "/>
<path style=" stroke:none;fill-rule:nonzero;fill:rgb(0%,0%,0%);fill-opacity:1;" d="M 117 82 L 124 82 L 124 89 L 117 89 Z M 117 82 "/>
<path style=" stroke:none;fill-rule:nonzero;fill:rgb(0%,0%,0%);fill-opacity:1;" d="M 131 82 L 138 82 L 138 89 L 131 89 Z M 131 82 "/>
<path style=" stroke:none;fill-rule:nonzero;fill:rgb(0%,0%,0%);fill-opacity:1;" d="M 145 82 L 152 82 L 152 89 L 145 89 Z M 145 82 "/>
<path style=" stroke:none;fill-rule:nonzero;fill:rgb(0%,0%,0%);fill-opacity:1;" d="M 33 89 L 40 89 L 40 96 L 33 96 Z M 33 89 "/>
<path style=" stroke:none;fill-rule:nonzero;fill:rgb(0%,0%,0%);fill-opacity:1;" d="M 40 89 L 47 89 L 47 96 L 40 96 Z M 40 89 "/>
<path style=" stroke:none;fill-rule:nonzero;fill:rgb(0%,0%,0%);fill-opacity:1;" d="M 68 89 L 75 89 L 75 96 L 68 96 Z M 68 89 "/>
<path style=" stroke:none;fill-rule:nonzero;fill:rgb(0%,0%,0%);fill-opacity:1;" d="M 75 89 L 82 89 L 82 96 L 75 96 Z M 75 89 "/>
<path style=" stroke:none;fill-rule:nonzero;fill:rgb(0%,0%,0%);fill-opacity:1;" d="M 96 89 L 103 89 L 103 96 L 96 96 Z M 96 89 "/>
<path style=" stroke:none;fill-rule:nonzero;fill:rgb(0%,0%,0%);fill-opacity:1;" d="M 110 89 L 117 89 L 117 96 L 110 96 Z M 110 89 "/>
<path style=" stroke:none;fill-rule:nonzero;fill:rgb(0%,0%,0%);fill-opacity:1;" d="M 124 89 L 131 89 L 131 96 L 124 96 Z M 124 89 "/>
<path style=" stroke:none;fill-rule:nonzero;fill:rgb(0%,0%,0%);fill-opacity:1;" d="M 131 89 L 138 89 L 138 96 L 131 96 Z M 131 89 "/>
<path style=" stroke:none;fill-rule:nonzero;fill:rgb(0%,0%,0%);fill-opacity:1;" d="M 138 89 L 145 89 L 145 96 L 138 96 Z M 138 89 "/>
<path style=" stroke:none;fill-rule:nonzero;fill:rgb(0%,0%,0%);fill-opacity:1;" d="M 166 89 L 173 89 L 173 96 L 166 96 Z M 166 89 "/>
<path style=" stroke:none;fill-rule:nonzero;fill:rgb(0%,0%,0%);fill-opacity:1;" d="M 12 96 L 19 96 L 19 103 L 12 103 Z M 12 96 "/>
<path style=" stroke:none;fill-rule:nonzero;fill:rgb(0%,0%,0%);fill-opacity:1;" d="M 33 96 L 40 96 L 40 103 L 33 103 Z M 33 96 "/>
<path style=" stroke:none;fill-rule:nonzero;fill:rgb(0%,0%,0%);fill-opacity:1;" d="M 40 96 L 47 96 L 47 103 L 40 103 Z M 40 96 "/>
<path style=" stroke:none;fill-rule:nonzero;fill:rgb(0%,0%,0%);fill-opacity:1;" d="M 54 96 L 61 96 L 61 103 L 54 103 Z M 54 96 "/>
<path style=" stroke:none;fill-rule:nonzero;fill:rgb(0%,0%,0%);fill-opacity:1;" d="M 61 96 L 68 96 L 68 103 L 61 103 Z M 61 96 "/>
<path style=" stroke:none;fill-rule:nonzero;fill:rgb(0%,0%,0%);fill-opacity:1;" d="M 89 96 L 96 96 L 96 103 L 89 103 Z M 89 96 "/>
<path style=" stroke:none;fill-rule:nonzero;fill:rgb(0%,0%,0%);fill-opacity:1;" d="M 103 96 L 110 96 L 110 103 L 103 103 Z M 103 96 "/>
<path style=" stroke:none;fill-rule:nonzero;fill:rgb(0%,0%,0%);fill-opacity:1;" d="M 110 96 L 117 96 L 117 103 L 110 103 Z M 110 96 "/>
<path style=" stroke:none;fill-rule:nonzero;fill:rgb(0%,0%,0%);fill-opacity:1;" d="M 131 96 L 138 96 L 138 103 L 131 103 Z M 131 96 "/>
<path style=" stroke:none;fill-rule:nonzero;fill:rgb(0%,0%,0%);fill-opacity:1;" d="M 138 96 L 145 96 L 145 103 L 138 103 Z M 138 96 "/>
<path style=" stroke:none;fill-rule:nonzero;fill:rgb(0%,0%,0%);fill-opacity:1;" d="M 145 96 L 152 96 L 152 103 L 145 103 Z M 145 96 "/>
<path style=" stroke:none;fill-rule:nonzero;fill:rgb(0%,0%,0%);fill-opacity:1;" d="M 152 96 L 159 96 L 159 103 L 152 103 Z M 152 96 "/>
<path style=" stroke:none;fill-rule:nonzero;fill:rgb(0%,0%,0%);fill-opacity:1;" d="M 166 96 L 173 96 L 173 103 L 166 103 Z M 166 96 "/>
<path style=" stroke:none;fill-rule:nonzero;fill:rgb(0%,0%,0%);fill-opacity:1;" d="M 12 103 L 19 103 L 19 110 L 12 110 Z M 12 103 "/>
<path style=" stroke:none;fill-rule:nonzero;fill:rgb(0%,0%,0%);fill-opacity:1;" d="M 26 103 L 33 103 L 33 110 L 26 110 Z M 26 103 "/>
<path style=" stroke:none;fill-rule:nonzero;fill:rgb(0%,0%,0%);fill-opacity:1;" d="M 33 103 L 40 103 L 40 110 L 33 110 Z M 33 103 "/>
<path style=" stroke:none;fill-rule:nonzero;fill:rgb(0%,0%,0%);fill-opacity:1;" d="M 82 103 L 89 103 L 89 110 L 82 110 Z M 82 103 "/>
<path style=" stroke:none;fill-rule:nonzero;fill:rgb(0%,0%,0%);fill-opacity:1;" d="M 96 103 L 103 103 L 103 110 L 96 110 Z M 96 103 "/>
<path style=" stroke:none;fill-rule:nonzero;fill:rgb(0%,0%,0%);fill-opacity:1;" d="M 117 103 L 124 103 L 124 110 L 117 110 Z M 117 103 "/>
<path style=" stroke:none;fill-rule:nonzero;fill:rgb(0%,0%,0%);fill-opacity:1;" d="M 124 103 L 131 103 L 131 110 L 124 110 Z M 124 103 "/>
<path style=" stroke:none;fill-rule:nonzero;fill:rgb(0%,0%,0%);fill-opacity:1;" d="M 131 103 L 138 103 L 138 110 L 131 110 Z M 131 103 "/>
<path style=" stroke:none;fill-rule:nonzero;fill:rgb(0%,0%,0%);fill-opacity:1;" d="M 152 103 L 159 103 L 159 110 L 152 110 Z M 152 103 "/>
<path style=" stroke:none;fill-rule:nonzero;fill:rgb(0%,0%,0%);fill-opacity:1;" d="M 166 103 L 173 103 L 173 110 L 166 110 Z M 166 103 "/>
<path style=" stroke:none;fill-rule:nonzero;fill:rgb(0%,0%,0%);fill-opacity:1;" d="M 33 110 L 40 110 L 40 117 L 33 117 Z M 33 110 "/>
<path style=" stroke:none;fill-rule:nonzero;fill:rgb(0%,0%,0%);fill-opacity:1;" d="M 40 110 L 47 110 L 47 117 L 40 117 Z M 40 110 "/>
<path style=" stroke:none;fill-rule:nonzero;fill:rgb(0%,0%,0%);fill-opacity:1;" d="M 47 110 L 54 110 L 54 117 L 47 117 Z M 47 110 "/>
<path style=" stroke:none;fill-rule:nonzero;fill:rgb(0%,0%,0%);fill-opacity:1;" d="M 54 110 L 61 110 L 61 117 L 54 117 Z M 54 110 "/>
<path style=" stroke:none;fill-rule:nonzero;fill:rgb(0%,0%,0%);fill-opacity:1;" d="M 61 110 L 68 110 L 68 117 L 61 117 Z M 61 110 "/>
<path style=" stroke:none;fill-rule:nonzero;fill:rgb(0%,0%,0%);fill-opacity:1;" d="M 68 110 L 75 110 L 75 117 L 68 117 Z M 68 110 "/>
<path style=" stroke:none;fill-rule:nonzero;fill:rgb(0%,0%,0%);fill-opacity:1;" d="M 75 110 L 82 110 L 82 117 L 75 117 Z M 75 110 "/>
<path style=" stroke:none;fill-rule:nonzero;fill:rgb(0%,0%,0%);fill-opacity:1;" d="M 82 110 L 89 110 L 89 117 L 82 117 Z M 82 110 "/>
<path style=" stroke:none;fill-rule:nonzero;fill:rgb(0%,0%,0%);fill-opacity:1;" d="M 89 110 L 96 110 L 96 117 L 89 117 Z M 89 110 "/>
<path style=" stroke:none;fill-rule:nonzero;fill:rgb(0%,0%,0%);fill-opacity:1;" d="M 96 110 L 103 110 L 103 117 L 96 117 Z M 96 110 "/>
<path style=" stroke:none;fill-rule:nonzero;fill:rgb(0%,0%,0%);fill-opacity:1;" d="M 103 110 L 110 110 L 110 117 L 103 117 Z M 103 110 "/>
<path style=" stroke:none;fill-rule:nonzero;fill:rgb(0%,0%,0%);fill-opacity:1;" d="M 110 110 L 117 110 L 117 117 L 110 117 Z M 110 110 "/>
<path style=" stroke:none;fill-rule:nonzero;fill:rgb(0%,0%,0%);fill-opacity:1;" d="M 117 110 L 124 110 L 124 117 L 117 117 Z M 117 110 "/>
<path style=" stroke:none;fill-rule:nonzero;fill:rgb(0%,0%,0%);fill-opacity:1;" d="M 166 110 L 173 110 L 173 117 L 166 117 Z M 166 110 "/>
<path style=" stroke:none;fill-rule:nonzero;fill:rgb(0%,0%,0%);fill-opacity:1;" d="M 33 117 L 40 117 L 40 124 L 33 124 Z M 33 117 "/>
<path style=" stroke:none;fill-rule:nonzero;fill:rgb(0%,0%,0%);fill-opacity:1;" d="M 40 117 L 47 117 L 47 124 L 40 124 Z M 40 117 "/>
<path style=" stroke:none;fill-rule:nonzero;fill:rgb(0%,0%,0%);fill-opacity:1;" d="M 47 117 L 54 117 L 54 124 L 47 124 Z M 47 117 "/>
<path style=" stroke:none;fill-rule:nonzero;fill:rgb(0%,0%,0%);fill-opacity:1;" d="M 61 117 L 68 117 L 68 124 L 61 124 Z M 61 117 "/>
<path style=" stroke:none;fill-rule:nonzero;fill:rgb(0%,0%,0%);fill-opacity:1;" d="M 68 117 L 75 117 L 75 124 L 68 124 Z M 68 117 "/>
<path style=" stroke:none;fill-rule:nonzero;fill:rgb(0%,0%,0%);fill-opacity:1;" d="M 75 117 L 82 117 L 82 124 L 75 124 Z M 75 117 "/>
<path style=" stroke:none;fill-rule:nonzero;fill:rgb(0%,0%,0%);fill-opacity:1;" d="M 89 117 L 96 117 L 96 124 L 89 124 Z M 89 117 "/>
<path style=" stroke:none;fill-rule:nonzero;fill:rgb(0%,0%,0%);fill-opacity:1;" d="M 103 117 L 110 117 L 110 124 L 103 124 Z M 103 117 "/>
<path style=" stroke:none;fill-rule:nonzero;fill:rgb(0%,0%,0%);fill-opacity:1;" d="M 117 117 L 124 117 L 124 124 L 117 124 Z M 117 117 "/>
<path style=" stroke:none;fill-rule:nonzero;fill:rgb(0%,0%,0%);fill-opacity:1;" d="M 124 117 L 131 117 L 131 124 L 124 124 Z M 124 117 "/>
<path style=" stroke:none;fill-rule:nonzero;fill:rgb(0%,0%,0%);fill-opacity:1;" d="M 131 117 L 138 117 L 138 124 L 131 124 Z M 131 117 "/>
<path style=" stroke:none;fill-rule:nonzero;fill:rgb(0%,0%,0%);fill-opacity:1;" d="M 173 117 L 180 117 L 180 124 L 173 124 Z M 173 117 "/>
<path style=" stroke:none;fill-rule:nonzero;fill:rgb(0%,0%,0%);fill-opacity:1;" d="M 180 117 L 187 117 L 187 124 L 180 124 Z M 180 117 "/>
<path style=" stroke:none;fill-rule:nonzero;fill:rgb(0%,0%,0%);fill-opacity:1;" d="M 12 124 L 19 124 L 19 131 L 12 131 Z M 12 124 "/>
<path style=" stroke:none;fill-rule:nonzero;fill:rgb(0%,0%,0%);fill-opacity:1;" d="M 19 124 L 26 124 L 26 131 L 19 131 Z M 19 124 "/>
<path style=" stroke:none;fill-rule:nonzero;fill:rgb(0%,0%,0%);fill-opacity:1;" d="M 26 124 L 33 124 L 33 131 L 26 131 Z M 26 124 "/>
<path style=" stroke:none;fill-rule:nonzero;fill:rgb(0%,0%,0%);fill-opacity:1;" d="M 54 124 L 61 124 L 61 131 L 54 131 Z M 54 124 "/>
<path style=" stroke:none;fill-rule:nonzero;fill:rgb(0%,0%,0%);fill-opacity:1;" d="M 61 124 L 68 124 L 68 131 L 61 131 Z M 61 124 "/>
<path style=" stroke:none;fill-rule:nonzero;fill:rgb(0%,0%,0%);fill-opacity:1;" d="M 75 124 L 82 124 L 82 131 L 75 131 Z M 75 124 "/>
<path style=" stroke:none;fill-rule:nonzero;fill:rgb(0%,0%,0%);fill-opacity:1;" d="M 82 124 L 89 124 L 89 131 L 82 131 Z M 82 124 "/>
<path style=" stroke:none;fill-rule:nonzero;fill:rgb(0%,0%,0%);fill-opacity:1;" d="M 96 124 L 103 124 L 103 131 L 96 131 Z M 96 124 "/>
<path style=" stroke:none;fill-rule:nonzero;fill:rgb(0%,0%,0%);fill-opacity:1;" d="M 103 124 L 110 124 L 110 131 L 103 131 Z M 103 124 "/>
<path style=" stroke:none;fill-rule:nonzero;fill:rgb(0%,0%,0%);fill-opacity:1;" d="M 117 124 L 124 124 L 124 131 L 117 131 Z M 117 124 "/>
<path style=" stroke:none;fill-rule:nonzero;fill:rgb(0%,0%,0%);fill-opacity:1;" d="M 124 124 L 131 124 L 131 131 L 124 131 Z M 124 124 "/>
<path style=" stroke:none;fill-rule:nonzero;fill:rgb(0%,0%,0%);fill-opacity:1;" d="M 131 124 L 138 124 L 138 131 L 131 131 Z M 131 124 "/>
<path style=" stroke:none;fill-rule:nonzero;fill:rgb(0%,0%,0%);fill-opacity:1;" d="M 138 124 L 145 124 L 145 131 L 138 131 Z M 138 124 "/>
<path style=" stroke:none;fill-rule:nonzero;fill:rgb(0%,0%,0%);fill-opacity:1;" d="M 145 124 L 152 124 L 152 131 L 145 131 Z M 145 124 "/>
<path style=" stroke:none;fill-rule:nonzero;fill:rgb(0%,0%,0%);fill-opacity:1;" d="M 152 124 L 159 124 L 159 131 L 152 131 Z M 152 124 "/>
<path style=" stroke:none;fill-rule:nonzero;fill:rgb(0%,0%,0%);fill-opacity:1;" d="M 173 124 L 180 124 L 180 131 L 173 131 Z M 173 124 "/>
<path style=" stroke:none;fill-rule:nonzero;fill:rgb(0%,0%,0%);fill-opacity:1;" d="M 180 124 L 187 124 L 187 131 L 180 131 Z M 180 124 "/>
<path style=" stroke:none;fill-rule:nonzero;fill:rgb(0%,0%,0%);fill-opacity:1;" d="M 68 131 L 75 131 L 75 138 L 68 138 Z M 68 131 "/>
<path style=" stroke:none;fill-rule:nonzero;fill:rgb(0%,0%,0%);fill-opacity:1;" d="M 75 131 L 82 131 L 82 138 L 75 138 Z M 75 131 "/>
<path style=" stroke:none;fill-rule:nonzero;fill:rgb(0%,0%,0%);fill-opacity:1;" d="M 103 131 L 110 131 L 110 138 L 103 138 Z M 103 131 "/>
<path style=" stroke:none;fill-rule:nonzero;fill:rgb(0%,0%,0%);fill-opacity:1;" d="M 110 131 L 117 131 L 117 138 L 110 138 Z M 110 131 "/>
<path style=" stroke:none;fill-rule:nonzero;fill:rgb(0%,0%,0%);fill-opacity:1;" d="M 124 131 L 131 131 L 131 138 L 124 138 Z M 124 131 "/>
<path style=" stroke:none;fill-rule:nonzero;fill:rgb(0%,0%,0%);fill-opacity:1;" d="M 152 131 L 159 131 L 159 138 L 152 138 Z M 152 131 "/>
<path style=" stroke:none;fill-rule:nonzero;fill:rgb(0%,0%,0%);fill-opacity:1;" d="M 173 131 L 180 131 L 180 138 L 173 138 Z M 173 131 "/>
<path style=" stroke:none;fill-rule:nonzero;fill:rgb(0%,0%,0%);fill-opacity:1;" d="M 180 131 L 187 131 L 187 138 L 180 138 Z M 180 131 "/>
<path style=" stroke:none;fill-rule:nonzero;fill:rgb(0%,0%,0%);fill-opacity:1;" d="M 12 138 L 19 138 L 19 145 L 12 145 Z M 12 138 "/>
<path style=" stroke:none;fill-rule:nonzero;fill:rgb(0%,0%,0%);fill-opacity:1;" d="M 19 138 L 26 138 L 26 145 L 19 145 Z M 19 138 "/>
<path style=" stroke:none;fill-rule:nonzero;fill:rgb(0%,0%,0%);fill-opacity:1;" d="M 26 138 L 33 138 L 33 145 L 26 145 Z M 26 138 "/>
<path style=" stroke:none;fill-rule:nonzero;fill:rgb(0%,0%,0%);fill-opacity:1;" d="M 33 138 L 40 138 L 40 145 L 33 145 Z M 33 138 "/>
<path style=" stroke:none;fill-rule:nonzero;fill:rgb(0%,0%,0%);fill-opacity:1;" d="M 40 138 L 47 138 L 47 145 L 40 145 Z M 40 138 "/>
<path style=" stroke:none;fill-rule:nonzero;fill:rgb(0%,0%,0%);fill-opacity:1;" d="M 47 138 L 54 138 L 54 145 L 47 145 Z M 47 138 "/>
<path style=" stroke:none;fill-rule:nonzero;fill:rgb(0%,0%,0%);fill-opacity:1;" d="M 54 138 L 61 138 L 61 145 L 54 145 Z M 54 138 "/>
<path style=" stroke:none;fill-rule:nonzero;fill:rgb(0%,0%,0%);fill-opacity:1;" d="M 75 138 L 82 138 L 82 145 L 75 145 Z M 75 138 "/>
<path style=" stroke:none;fill-rule:nonzero;fill:rgb(0%,0%,0%);fill-opacity:1;" d="M 82 138 L 89 138 L 89 145 L 82 145 Z M 82 138 "/>
<path style=" stroke:none;fill-rule:nonzero;fill:rgb(0%,0%,0%);fill-opacity:1;" d="M 124 138 L 131 138 L 131 145 L 124 145 Z M 124 138 "/>
<path style=" stroke:none;fill-rule:nonzero;fill:rgb(0%,0%,0%);fill-opacity:1;" d="M 138 138 L 145 138 L 145 145 L 138 145 Z M 138 138 "/>
<path style=" stroke:none;fill-rule:nonzero;fill:rgb(0%,0%,0%);fill-opacity:1;" d="M 152 138 L 159 138 L 159 145 L 152 145 Z M 152 138 "/>
<path style=" stroke:none;fill-rule:nonzero;fill:rgb(0%,0%,0%);fill-opacity:1;" d="M 12 145 L 19 145 L 19 152 L 12 152 Z M 12 145 "/>
<path style=" stroke:none;fill-rule:nonzero;fill:rgb(0%,0%,0%);fill-opacity:1;" d="M 54 145 L 61 145 L 61 152 L 54 152 Z M 54 145 "/>
<path style=" stroke:none;fill-rule:nonzero;fill:rgb(0%,0%,0%);fill-opacity:1;" d="M 68 145 L 75 145 L 75 152 L 68 152 Z M 68 145 "/>
<path style=" stroke:none;fill-rule:nonzero;fill:rgb(0%,0%,0%);fill-opacity:1;" d="M 82 145 L 89 145 L 89 152 L 82 152 Z M 82 145 "/>
<path style=" stroke:none;fill-rule:nonzero;fill:rgb(0%,0%,0%);fill-opacity:1;" d="M 96 145 L 103 145 L 103 152 L 96 152 Z M 96 145 "/>
<path style=" stroke:none;fill-rule:nonzero;fill:rgb(0%,0%,0%);fill-opacity:1;" d="M 110 145 L 117 145 L 117 152 L 110 152 Z M 110 145 "/>
<path style=" stroke:none;fill-rule:nonzero;fill:rgb(0%,0%,0%);fill-opacity:1;" d="M 124 145 L 131 145 L 131 152 L 124 152 Z M 124 145 "/>
<path style=" stroke:none;fill-rule:nonzero;fill:rgb(0%,0%,0%);fill-opacity:1;" d="M 152 145 L 159 145 L 159 152 L 152 152 Z M 152 145 "/>
<path style=" stroke:none;fill-rule:nonzero;fill:rgb(0%,0%,0%);fill-opacity:1;" d="M 159 145 L 166 145 L 166 152 L 159 152 Z M 159 145 "/>
<path style=" stroke:none;fill-rule:nonzero;fill:rgb(0%,0%,0%);fill-opacity:1;" d="M 173 145 L 180 145 L 180 152 L 173 152 Z M 173 145 "/>
<path style=" stroke:none;fill-rule:nonzero;fill:rgb(0%,0%,0%);fill-opacity:1;" d="M 180 145 L 187 145 L 187 152 L 180 152 Z M 180 145 "/>
<path style=" stroke:none;fill-rule:nonzero;fill:rgb(0%,0%,0%);fill-opacity:1;" d="M 12 152 L 19 152 L 19 159 L 12 159 Z M 12 152 "/>
<path style=" stroke:none;fill-rule:nonzero;fill:rgb(0%,0%,0%);fill-opacity:1;" d="M 26 152 L 33 152 L 33 159 L 26 159 Z M 26 152 "/>
<path style=" stroke:none;fill-rule:nonzero;fill:rgb(0%,0%,0%);fill-opacity:1;" d="M 33 152 L 40 152 L 40 159 L 33 159 Z M 33 152 "/>
<path style=" stroke:none;fill-rule:nonzero;fill:rgb(0%,0%,0%);fill-opacity:1;" d="M 40 152 L 47 152 L 47 159 L 40 159 Z M 40 152 "/>
<path style=" stroke:none;fill-rule:nonzero;fill:rgb(0%,0%,0%);fill-opacity:1;" d="M 54 152 L 61 152 L 61 159 L 54 159 Z M 54 152 "/>
<path style=" stroke:none;fill-rule:nonzero;fill:rgb(0%,0%,0%);fill-opacity:1;" d="M 68 152 L 75 152 L 75 159 L 68 159 Z M 68 152 "/>
<path style=" stroke:none;fill-rule:nonzero;fill:rgb(0%,0%,0%);fill-opacity:1;" d="M 75 152 L 82 152 L 82 159 L 75 159 Z M 75 152 "/>
<path style=" stroke:none;fill-rule:nonzero;fill:rgb(0%,0%,0%);fill-opacity:1;" d="M 89 152 L 96 152 L 96 159 L 89 159 Z M 89 152 "/>
<path style=" stroke:none;fill-rule:nonzero;fill:rgb(0%,0%,0%);fill-opacity:1;" d="M 103 152 L 110 152 L 110 159 L 103 159 Z M 103 152 "/>
<path style=" stroke:none;fill-rule:nonzero;fill:rgb(0%,0%,0%);fill-opacity:1;" d="M 110 152 L 117 152 L 117 159 L 110 159 Z M 110 152 "/>
<path style=" stroke:none;fill-rule:nonzero;fill:rgb(0%,0%,0%);fill-opacity:1;" d="M 124 152 L 131 152 L 131 159 L 124 159 Z M 124 152 "/>
<path style=" stroke:none;fill-rule:nonzero;fill:rgb(0%,0%,0%);fill-opacity:1;" d="M 131 152 L 138 152 L 138 159 L 131 159 Z M 131 152 "/>
<path style=" stroke:none;fill-rule:nonzero;fill:rgb(0%,0%,0%);fill-opacity:1;" d="M 138 152 L 145 152 L 145 159 L 138 159 Z M 138 152 "/>
<path style=" stroke:none;fill-rule:nonzero;fill:rgb(0%,0%,0%);fill-opacity:1;" d="M 145 152 L 152 152 L 152 159 L 145 159 Z M 145 152 "/>
<path style=" stroke:none;fill-rule:nonzero;fill:rgb(0%,0%,0%);fill-opacity:1;" d="M 152 152 L 159 152 L 159 159 L 152 159 Z M 152 152 "/>
<path style=" stroke:none;fill-rule:nonzero;fill:rgb(0%,0%,0%);fill-opacity:1;" d="M 159 152 L 166 152 L 166 159 L 159 159 Z M 159 152 "/>
<path style=" stroke:none;fill-rule:nonzero;fill:rgb(0%,0%,0%);fill-opacity:1;" d="M 166 152 L 173 152 L 173 159 L 166 159 Z M 166 152 "/>
<path style=" stroke:none;fill-rule:nonzero;fill:rgb(0%,0%,0%);fill-opacity:1;" d="M 180 152 L 187 152 L 187 159 L 180 159 Z M 180 152 "/>
<path style=" stroke:none;fill-rule:nonzero;fill:rgb(0%,0%,0%);fill-opacity:1;" d="M 12 159 L 19 159 L 19 166 L 12 166 Z M 12 159 "/>
<path style=" stroke:none;fill-rule:nonzero;fill:rgb(0%,0%,0%);fill-opacity:1;" d="M 26 159 L 33 159 L 33 166 L 26 166 Z M 26 159 "/>
<path style=" stroke:none;fill-rule:nonzero;fill:rgb(0%,0%,0%);fill-opacity:1;" d="M 33 159 L 40 159 L 40 166 L 33 166 Z M 33 159 "/>
<path style=" stroke:none;fill-rule:nonzero;fill:rgb(0%,0%,0%);fill-opacity:1;" d="M 40 159 L 47 159 L 47 166 L 40 166 Z M 40 159 "/>
<path style=" stroke:none;fill-rule:nonzero;fill:rgb(0%,0%,0%);fill-opacity:1;" d="M 54 159 L 61 159 L 61 166 L 54 166 Z M 54 159 "/>
<path style=" stroke:none;fill-rule:nonzero;fill:rgb(0%,0%,0%);fill-opacity:1;" d="M 75 159 L 82 159 L 82 166 L 75 166 Z M 75 159 "/>
<path style=" stroke:none;fill-rule:nonzero;fill:rgb(0%,0%,0%);fill-opacity:1;" d="M 96 159 L 103 159 L 103 166 L 96 166 Z M 96 159 "/>
<path style=" stroke:none;fill-rule:nonzero;fill:rgb(0%,0%,0%);fill-opacity:1;" d="M 124 159 L 131 159 L 131 166 L 124 166 Z M 124 159 "/>
<path style=" stroke:none;fill-rule:nonzero;fill:rgb(0%,0%,0%);fill-opacity:1;" d="M 131 159 L 138 159 L 138 166 L 131 166 Z M 131 159 "/>
<path style=" stroke:none;fill-rule:nonzero;fill:rgb(0%,0%,0%);fill-opacity:1;" d="M 138 159 L 145 159 L 145 166 L 138 166 Z M 138 159 "/>
<path style=" stroke:none;fill-rule:nonzero;fill:rgb(0%,0%,0%);fill-opacity:1;" d="M 145 159 L 152 159 L 152 166 L 145 166 Z M 145 159 "/>
<path style=" stroke:none;fill-rule:nonzero;fill:rgb(0%,0%,0%);fill-opacity:1;" d="M 173 159 L 180 159 L 180 166 L 173 166 Z M 173 159 "/>
<path style=" stroke:none;fill-rule:nonzero;fill:rgb(0%,0%,0%);fill-opacity:1;" d="M 180 159 L 187 159 L 187 166 L 180 166 Z M 180 159 "/>
<path style=" stroke:none;fill-rule:nonzero;fill:rgb(0%,0%,0%);fill-opacity:1;" d="M 12 166 L 19 166 L 19 173 L 12 173 Z M 12 166 "/>
<path style=" stroke:none;fill-rule:nonzero;fill:rgb(0%,0%,0%);fill-opacity:1;" d="M 26 166 L 33 166 L 33 173 L 26 173 Z M 26 166 "/>
<path style=" stroke:none;fill-rule:nonzero;fill:rgb(0%,0%,0%);fill-opacity:1;" d="M 33 166 L 40 166 L 40 173 L 33 173 Z M 33 166 "/>
<path style=" stroke:none;fill-rule:nonzero;fill:rgb(0%,0%,0%);fill-opacity:1;" d="M 40 166 L 47 166 L 47 173 L 40 173 Z M 40 166 "/>
<path style=" stroke:none;fill-rule:nonzero;fill:rgb(0%,0%,0%);fill-opacity:1;" d="M 54 166 L 61 166 L 61 173 L 54 173 Z M 54 166 "/>
<path style=" stroke:none;fill-rule:nonzero;fill:rgb(0%,0%,0%);fill-opacity:1;" d="M 75 166 L 82 166 L 82 173 L 75 173 Z M 75 166 "/>
<path style=" stroke:none;fill-rule:nonzero;fill:rgb(0%,0%,0%);fill-opacity:1;" d="M 89 166 L 96 166 L 96 173 L 89 173 Z M 89 166 "/>
<path style=" stroke:none;fill-rule:nonzero;fill:rgb(0%,0%,0%);fill-opacity:1;" d="M 96 166 L 103 166 L 103 173 L 96 173 Z M 96 166 "/>
<path style=" stroke:none;fill-rule:nonzero;fill:rgb(0%,0%,0%);fill-opacity:1;" d="M 103 166 L 110 166 L 110 173 L 103 173 Z M 103 166 "/>
<path style=" stroke:none;fill-rule:nonzero;fill:rgb(0%,0%,0%);fill-opacity:1;" d="M 110 166 L 117 166 L 117 173 L 110 173 Z M 110 166 "/>
<path style=" stroke:none;fill-rule:nonzero;fill:rgb(0%,0%,0%);fill-opacity:1;" d="M 124 166 L 131 166 L 131 173 L 124 173 Z M 124 166 "/>
<path style=" stroke:none;fill-rule:nonzero;fill:rgb(0%,0%,0%);fill-opacity:1;" d="M 131 166 L 138 166 L 138 173 L 131 173 Z M 131 166 "/>
<path style=" stroke:none;fill-rule:nonzero;fill:rgb(0%,0%,0%);fill-opacity:1;" d="M 138 166 L 145 166 L 145 173 L 138 173 Z M 138 166 "/>
<path style=" stroke:none;fill-rule:nonzero;fill:rgb(0%,0%,0%);fill-opacity:1;" d="M 173 166 L 180 166 L 180 173 L 173 173 Z M 173 166 "/>
<path style=" stroke:none;fill-rule:nonzero;fill:rgb(0%,0%,0%);fill-opacity:1;" d="M 12 173 L 19 173 L 19 180 L 12 180 Z M 12 173 "/>
<path style=" stroke:none;fill-rule:nonzero;fill:rgb(0%,0%,0%);fill-opacity:1;" d="M 54 173 L 61 173 L 61 180 L 54 180 Z M 54 173 "/>
<path style=" stroke:none;fill-rule:nonzero;fill:rgb(0%,0%,0%);fill-opacity:1;" d="M 68 173 L 75 173 L 75 180 L 68 180 Z M 68 173 "/>
<path style=" stroke:none;fill-rule:nonzero;fill:rgb(0%,0%,0%);fill-opacity:1;" d="M 75 173 L 82 173 L 82 180 L 75 180 Z M 75 173 "/>
<path style=" stroke:none;fill-rule:nonzero;fill:rgb(0%,0%,0%);fill-opacity:1;" d="M 89 173 L 96 173 L 96 180 L 89 180 Z M 89 173 "/>
<path style=" stroke:none;fill-rule:nonzero;fill:rgb(0%,0%,0%);fill-opacity:1;" d="M 103 173 L 110 173 L 110 180 L 103 180 Z M 103 173 "/>
<path style=" stroke:none;fill-rule:nonzero;fill:rgb(0%,0%,0%);fill-opacity:1;" d="M 117 173 L 124 173 L 124 180 L 117 180 Z M 117 173 "/>
<path style=" stroke:none;fill-rule:nonzero;fill:rgb(0%,0%,0%);fill-opacity:1;" d="M 131 173 L 138 173 L 138 180 L 131 180 Z M 131 173 "/>
<path style=" stroke:none;fill-rule:nonzero;fill:rgb(0%,0%,0%);fill-opacity:1;" d="M 138 173 L 145 173 L 145 180 L 138 180 Z M 138 173 "/>
<path style=" stroke:none;fill-rule:nonzero;fill:rgb(0%,0%,0%);fill-opacity:1;" d="M 152 173 L 159 173 L 159 180 L 152 180 Z M 152 173 "/>
<path style=" stroke:none;fill-rule:nonzero;fill:rgb(0%,0%,0%);fill-opacity:1;" d="M 166 173 L 173 173 L 173 180 L 166 180 Z M 166 173 "/>
<path style=" stroke:none;fill-rule:nonzero;fill:rgb(0%,0%,0%);fill-opacity:1;" d="M 173 173 L 180 173 L 180 180 L 173 180 Z M 173 173 "/>
<path style=" stroke:none;fill-rule:nonzero;fill:rgb(0%,0%,0%);fill-opacity:1;" d="M 12 180 L 19 180 L 19 187 L 12 187 Z M 12 180 "/>
<path style=" stroke:none;fill-rule:nonzero;fill:rgb(0%,0%,0%);fill-opacity:1;" d="M 19 180 L 26 180 L 26 187 L 19 187 Z M 19 180 "/>
<path style=" stroke:none;fill-rule:nonzero;fill:rgb(0%,0%,0%);fill-opacity:1;" d="M 26 180 L 33 180 L 33 187 L 26 187 Z M 26 180 "/>
<path style=" stroke:none;fill-rule:nonzero;fill:rgb(0%,0%,0%);fill-opacity:1;" d="M 33 180 L 40 180 L 40 187 L 33 187 Z M 33 180 "/>
<path style=" stroke:none;fill-rule:nonzero;fill:rgb(0%,0%,0%);fill-opacity:1;" d="M 40 180 L 47 180 L 47 187 L 40 187 Z M 40 180 "/>
<path style=" stroke:none;fill-rule:nonzero;fill:rgb(0%,0%,0%);fill-opacity:1;" d="M 47 180 L 54 180 L 54 187 L 47 187 Z M 47 180 "/>
<path style=" stroke:none;fill-rule:nonzero;fill:rgb(0%,0%,0%);fill-opacity:1;" d="M 54 180 L 61 180 L 61 187 L 54 187 Z M 54 180 "/>
<path style=" stroke:none;fill-rule:nonzero;fill:rgb(0%,0%,0%);fill-opacity:1;" d="M 68 180 L 75 180 L 75 187 L 68 187 Z M 68 180 "/>
<path style=" stroke:none;fill-rule:nonzero;fill:rgb(0%,0%,0%);fill-opacity:1;" d="M 75 180 L 82 180 L 82 187 L 75 187 Z M 75 180 "/>
<path style=" stroke:none;fill-rule:nonzero;fill:rgb(0%,0%,0%);fill-opacity:1;" d="M 82 180 L 89 180 L 89 187 L 82 187 Z M 82 180 "/>
<path style=" stroke:none;fill-rule:nonzero;fill:rgb(0%,0%,0%);fill-opacity:1;" d="M 96 180 L 103 180 L 103 187 L 96 187 Z M 96 180 "/>
<path style=" stroke:none;fill-rule:nonzero;fill:rgb(0%,0%,0%);fill-opacity:1;" d="M 103 180 L 110 180 L 110 187 L 103 187 Z M 103 180 "/>
<path style=" stroke:none;fill-rule:nonzero;fill:rgb(0%,0%,0%);fill-opacity:1;" d="M 117 180 L 124 180 L 124 187 L 117 187 Z M 117 180 "/>
<path style=" stroke:none;fill-rule:nonzero;fill:rgb(0%,0%,0%);fill-opacity:1;" d="M 131 180 L 138 180 L 138 187 L 131 187 Z M 131 180 "/>
<path style=" stroke:none;fill-rule:nonzero;fill:rgb(0%,0%,0%);fill-opacity:1;" d="M 138 180 L 145 180 L 145 187 L 138 187 Z M 138 180 "/>
<path style=" stroke:none;fill-rule:nonzero;fill:rgb(0%,0%,0%);fill-opacity:1;" d="M 166 180 L 173 180 L 173 187 L 166 187 Z M 166 180 "/>
<path style=" stroke:none;fill-rule:nonzero;fill:rgb(0%,0%,0%);fill-opacity:1;" d="M 173 180 L 180 180 L 180 187 L 173 187 Z M 173 180 "/>
<path style=" stroke:none;fill-rule:nonzero;fill:rgb(0%,0%,0%);fill-opacity:1;" d="M 180 180 L 187 180 L 187 187 L 180 187 Z M 180 180 "/>
</g>
</defs>
<g id="surface1">
<use xlink:href="#surface5" mask="url(#mask0)"/>
<path style=" stroke:none;fill-rule:nonzero;fill:rgb(0%,44.313049%,100%);fill-opacity:1;" d="M 17.902344 11.613281 C 17.902344 14.683594 15.414062 17.167969 12.347656 17.167969 C 9.28125 17.167969 6.792969 14.683594 6.792969 11.613281 C 6.792969 8.546875 9.28125 6.058594 12.347656 6.058594 C 15.414062 6.058594 17.902344 8.546875 17.902344 11.613281 Z M 17.902344 11.613281 "/>
<path style=" stroke:none;fill-rule:nonzero;fill:rgb(0%,44.313049%,100%);fill-opacity:1;" d="M 17.949219 187.125 C 17.949219 190.191406 15.460938 192.679688 12.394531 192.679688 C 9.328125 192.679688 6.839844 190.191406 6.839844 187.125 C 6.839844 184.058594 9.328125 181.570312 12.394531 181.570312 C 15.460938 181.570312 17.949219 184.058594 17.949219 187.125 "/>
<path style=" stroke:none;fill-rule:nonzero;fill:rgb(0%,44.313049%,100%);fill-opacity:1;" d="M 192.246094 12.140625 C 192.246094 15.207031 189.761719 17.695312 186.691406 17.695312 C 183.625 17.695312 181.140625 15.207031 181.140625 12.140625 C 181.140625 9.070312 183.625 6.585938 186.691406 6.585938 C 189.761719 6.585938 192.246094 9.070312 192.246094 12.140625 "/>
<path style=" stroke:none;fill-rule:nonzero;fill:rgb(0%,44.313049%,100%);fill-opacity:1;" d="M 192.296875 187.648438 C 192.296875 190.71875 189.808594 193.203125 186.742188 193.203125 C 183.675781 193.203125 181.1875 190.71875 181.1875 187.648438 C 181.1875 184.582031 183.675781 182.097656 186.742188 182.097656 C 189.808594 182.097656 192.296875 184.582031 192.296875 187.648438 "/>
</g>
</svg>
